<?xml version="1.0" encoding="utf-8"?>
<!-- Generator: Adobe Illustrator 25.0.1, SVG Export Plug-In . SVG Version: 6.00 Build 0)  -->
<svg version="1.0" id="Layer_1" xmlns="http://www.w3.org/2000/svg" xmlns:xlink="http://www.w3.org/1999/xlink" x="0px" y="0px"
	 viewBox="0 0 318 232" style="enable-background:new 0 0 318 232;" xml:space="preserve">
<style type="text/css">
	.st0{fill:#3F91CB;}
	.st1{fill-rule:evenodd;clip-rule:evenodd;fill:#FFFFFF;}
	.st2{fill:#FFFFFF;}
</style>
<circle class="st0" cx="159" cy="116" r="79.7"/>
<path class="st1" d="M159,84.2c-18,0-32.5,14.6-32.5,32.6c0,14,9,26.4,22.3,30.9c1.6,0.3,2.2-0.7,2.2-1.6v-6.1
	c-9.1,1.9-11-3.9-11-3.9c-1.5-3.8-3.6-4.8-3.6-4.8c-3-2,0.2-2,0.2-2c2.1,0.3,3.9,1.5,5,3.4c2.9,5,7.6,3.5,9.5,2.7
	c0.1-1.7,0.9-3.2,2.1-4.4c-7.2-0.8-14.8-3.6-14.8-16.1c0-3.2,1.2-6.4,3.4-8.7c-1-2.8-0.9-5.9,0.3-8.6c0,0,2.7-0.9,9,3.3
	c5.3-1.5,11-1.5,16.3,0c6.1-4.2,8.9-3.4,8.9-3.4c1.2,2.7,1.3,5.8,0.3,8.6c2.2,2.4,3.4,5.5,3.4,8.7c0,12.5-7.6,15.3-14.9,16.1
	c1.6,1.6,2.4,3.8,2.2,6v8.9c0,0.9,0.6,1.9,2.2,1.6c17-5.8,26.1-24.3,20.3-41.3C185.2,93.2,172.9,84.3,159,84.2z"/>
<path class="st2" d="M138.8,131c0,0.2-0.3,0.2-0.5,0.1c-0.2-0.1-0.4-0.3-0.3-0.5c0.1-0.2,0.3-0.2,0.6-0.1
	C138.7,130.6,138.9,130.8,138.8,131z"/>
<path class="st2" d="M140.1,132.5c-0.1,0.1-0.5,0.1-0.7-0.1c-0.2-0.2-0.2-0.5-0.1-0.7c0.2-0.1,0.4-0.1,0.7,0.1
	S140.3,132.3,140.1,132.5z"/>
<path class="st2" d="M141.4,134.4c-0.2,0.1-0.5,0-0.7-0.3s-0.2-0.6,0-0.8s0.5,0,0.7,0.3C141.6,133.8,141.6,134.1,141.4,134.4z"/>
<path class="st2" d="M143.1,136.1c-0.3,0.2-0.6,0.1-0.8-0.1c-0.3-0.3-0.4-0.6-0.2-0.8c0.3-0.2,0.6-0.1,0.8,0.1
	C143.2,135.6,143.3,136,143.1,136.1z"/>
<path class="st2" d="M145.6,137.2c-0.2,0.3-0.5,0.4-0.8,0.2c-0.4-0.1-0.6-0.4-0.5-0.7c0.1-0.3,0.5-0.4,0.8-0.3
	S145.6,137,145.6,137.2z"/>
<path class="st2" d="M148.2,137.4c0,0.3-0.3,0.5-0.7,0.5s-0.7-0.2-0.7-0.5s0.3-0.5,0.7-0.5S148.2,137.1,148.2,137.4z"/>
<path class="st2" d="M150.7,137c0,0.3-0.3,0.6-0.6,0.6c-0.4,0.1-0.7-0.1-0.8-0.3s0.2-0.5,0.6-0.6C150.2,136.6,150.6,136.7,150.7,137
	z"/>
</svg>
